Patient4_TMGait_0pt6_01_left_46_EMG.mot
version=1
nRows=13
nColumns=33
inDegrees=no
endheader
time	1LAddLong	2LGlutMax	3LGlutMed	4LIliopsoas	5LSemiMemb	6LBicFemLong	7LRecFem	8LVastMed	9LVastLat	10LGasMed	11LTibAnt	12lTibPost	13LPeroneusLong	14LSol	15LExtDigLong	16LFlexDigLong	17RAddLong	18RGlutMax	19RGlutMed	20RIliopsoas	21RSemiMemb	22RBicFemLong	23RRecFem	24RVastMed	25RVastLat	26RGasMed	27RTibAnt	28RTibPost	29RPeroneusLong	30RSol	31RExtDigLong	32RFlexDigLong
56.417	-0.00824	1.0107	0.26825	-0.005951	-0.04837	0.086823	0.075226	-0.000916	-0.25635	-0.31433	0.009918	0.021362	0.039368	-0.17914	-0.078125	0.054474	0.041504	-0.58136	0.068817	-0.019531	-0.038147	-0.3241	0.52231	-0.06546	0.008545	-0.004578	0.38574	-0.005341	-0.006561	0.30456	-0.001678	-0.018616
56.418	-0.013275	0.99655	0.18234	0.022125	-0.074615	0.20065	0.16541	0.007629	-0.26032	-0.068817	0.004883	0.039978	0.040131	-0.20844	-0.085449	0.071716	0.011292	-0.54703	-0.12161	-0.018921	-0.12329	-0.28076	0.48386	-0.029755	0.019226	-0.002289	0.32013	-0.009613	0.030823	0.3125	-0.006714	-0.025787
56.419	-0.009308	0.96802	0.24857	0.008087	-0.12619	0.18921	0.19073	0.008698	-0.30701	-0.009766	0.007629	0.042267	0.074158	-0.047913	-0.069885	0.065918	0.002441	-0.65689	-0.17212	-0.05127	-0.1651	-0.22049	0.42389	-0.021667	0.04364	0.00412	0.06424	-0.009308	0.056152	0.22308	-0.002899	-0.018311
56.42	0.001221	0.92514	0.14862	-0.001373	-0.19547	0.09552	0.15533	-0.004578	-0.19028	0.040588	0.003052	0.044556	0.050964	-0.052338	-0.044403	0.046844	-0.005951	-0.78079	-0.21042	-0.065002	-0.095825	-0.15686	0.4335	0.016632	0.05249	0.002136	-0.32501	-0.009613	0.092926	0.18417	-0.001526	-0.016174
56.421	0.010681	0.93857	0.10864	0.003052	-0.11993	0.037689	0.096588	-0.027313	-0.17166	0.04776	0.022278	0.023193	-0.039978	0.06897	-0.032959	0.02182	0.004272	-0.85693	-0.22964	-0.032501	-0.001678	-0.03891	0.46387	0.02243	0.037842	0.003204	-0.20264	-0.007019	0.050049	0.1503	-0.004425	-0.019379
56.422	-0.003052	0.94559	0.10193	0.00946	-0.10605	0.078735	0.09201	-0.033722	-0.20233	0.007477	0.022736	0.00351	-0.056	0.21927	-0.014038	0.012665	-0.009155	-0.95642	-0.26504	0.076599	0.030823	0.054169	0.46158	0.012665	0.035248	-0.000458	0.31006	-0.002289	-0.096588	0.12787	0.000153	-0.015259
56.423	0.024872	0.94177	0.019989	0.016632	0.000458	0.083313	0.098724	-0.019836	-0.16159	-0.074158	0.003204	0.039368	-0.032196	0.21454	0.031586	0.02655	0.013275	-1.0745	-0.27268	0.14297	-0.019379	0.071564	0.41412	0.004272	0.045166	0.001221	0.4776	-0.001678	-0.085297	0.06424	0.001068	-0.006714
56.424	0.018921	0.77652	-0.13641	-0.005188	0.11429	-0.17502	0.059204	-0.016174	-0.12009	-0.19501	-0.015717	0.052032	0.011292	0.24887	0.042419	-0.039215	0.045776	-1.2645	-0.27679	0.13596	-0.00824	0.074921	0.46341	-0.014954	0.023956	-0.003052	0.33737	-0.007629	-0.03952	0.022278	-0.002441	-0.001831
56.425	0.023804	0.63126	-0.1648	0.009155	0.07843	-0.19592	0.011902	-0.00412	-0.12665	-0.30365	-0.016022	0.071716	0.078125	0.25528	0.05249	-0.65414	0.033875	-1.3428	-0.30701	0.042267	0.007324	0.13031	0.50964	-0.007324	0.013275	0.006256	0.19516	-0.008087	-0.10407	0.014801	-0.008087	-0.00824
56.426	0.030823	0.60196	-0.28198	0.006409	0.056152	-0.16617	-0.041199	0.002899	-0.10346	-0.53467	-0.019684	0.093536	0.16342	0.15869	0.064697	0.44861	0.023346	-1.3109	-0.29007	-0.007172	-0.008545	0.17807	0.49576	-0.017853	0.001526	-0.002289	0.17471	-0.009308	-0.15396	-0.001678	-0.005188	-0.024414
56.427	0.022583	0.63232	-0.2533	0.015259	0.069122	-0.27191	-0.063477	0.00824	-0.071106	-0.71091	-0.01297	0.10391	0.14526	0.20584	0.073853	0.70572	0.019073	-1.3048	-0.23987	0.09079	0.011292	0.20065	0.45242	-0.09903	-0.022888	-0.003052	-0.35904	-0.005188	-0.11765	-0.019989	-0.005341	-0.015564
56.428	0.023041	0.70618	-0.2739	0.009003	0.002747	-0.15411	-0.046234	0.028992	-0.083313	-0.72998	-0.041809	0.071106	-0.051422	0.25314	0.063324	-0.29205	-0.065918	-1.3454	-0.28992	0.091705	-0.02655	0.074768	0.42618	-0.041199	-0.031891	0.000458	-0.61142	-0.008698	-0.095367	-0.070648	-0.006866	-0.015106
56.429	0.015259	0.7489	-0.036469	0.020599	-0.042572	-0.14618	-0.085602	0.020905	-0.034485	-0.47043	-0.04425	0.039215	-0.11795	0.073547	0.036621	-0.54153	-0.16022	-1.4359	-0.28549	0.027771	-0.10056	0.01236	0.3598	-0.061646	-0.011749	-0.002594	-0.24338	-0.00412	-0.022583	-0.11276	-0.004883	-0.004578
